<svg xmlns="http://www.w3.org/2000/svg" width="320" height="320" viewBox="0 0 512 512">
    <defs>
    	<linearGradient x1="0" y1="0" x2="1" y2="1" id="one">
            <stop offset="0.35" stop-color="#ffdd3a"/>
            <stop offset="0.65" stop-color="#ffab00"/>
        </linearGradient>
        <linearGradient x1="0" y1="0" x2="1" y2="1" id="two">
            <stop offset="0.1" stop-color="#ff5d00"/>
            <stop offset="0.9" stop-color="#5f00bf"/>
        </linearGradient>
    </defs>
	<path fill="url(#one)" d="M320 0H448c35.3 0 64 28.7 64 64V192c0 8.8-7.2 16-16 16H444c-6.6 0-12 5.4-12 12v4c0 17.7-14.3 32-32 32s-32-14.3-32-32v-4c0-6.6-5.4-12-12-12l-36 0c-8.8 0-16-7.2-16-16V160c0-8.8 7.2-16 16-16h16c17.7 0 32-14.3 32-32s-14.3-32-32-32H320c-8.8 0-16-7.2-16-16V16c0-8.8 7.2-16 16-16zM224 448v64H64c-35.3 0-64-28.7-64-64V288H64c8.8 0 16-7.2 16-16V256c0-17.7 14.3-32 32-32s32 14.3 32 32v16c0 8.8 7.2 16 16 16h64v64c0 8.8-7.2 16-16 16H192c-17.7 0-32 14.3-32 32s14.3 32 32 32h16c8.8 0 16 7.2 16 16z"/>
	<path fill="url(#two)" d="M0 288H64c8.8 0 16-7.2 16-16V256c0-17.7 14.3-32 32-32s32 14.3 32 32v16c0 8.8 7.2 16 16 16h64V220c0-6.6 5.4-12 12-12h4c17.7 0 32-14.3 32-32s-14.3-32-32-32h-4c-6.6 0-12-5.4-12-12V80c0-8.8-7.2-16-16-16H64C28.7 64 0 92.7 0 128V288zm224 0v64c0 8.8-7.2 16-16 16H192c-17.7 0-32 14.3-32 32s14.3 32 32 32h16c8.8 0 16 7.2 16 16v64H384c35.3 0 64-28.7 64-64V304c0-8.8-7.2-16-16-16H384c-8.8 0-16 7.2-16 16v16c0 17.7-14.3 32-32 32s-32-14.3-32-32V304c0-8.8-7.2-16-16-16H224z"/>
</svg>